<?xml version="1.0" encoding="UTF-8"?>
<svg width="32px" height="32px" viewBox="0 0 32 32" version="1.1" xmlns="http://www.w3.org/2000/svg" xmlns:xlink="http://www.w3.org/1999/xlink">
    <title>ç®€å†™-LOGO</title>
    <defs>
        <filter color-interpolation-filters="auto" id="filter-1">
            <feColorMatrix in="SourceGraphic" type="matrix" values="0 0 0 0 0.000000 0 0 0 0 0.000000 0 0 0 0 0.000000 0 0 0 1.000000 0"></feColorMatrix>
        </filter>
    </defs>
    <g id="ðŸ¦è®¾è®¡" stroke="none" stroke-width="1" fill="none" fill-rule="evenodd">
        <g id="7.1å…³äºŽæˆ‘ä»¬-å…¬å¸ä¿¡æ¯ï¼ˆé¼ æ ‡äº¤äº’ï¼‰" >
            <g id="ç®€å†™-LOGO" >
                <g id="å›¾å½¢" fill="#F55A00" fill-rule="nonzero">
<!--                    <polygon id="è·¯å¾„" points="51.7388506 12.6786207 38.9885057 32 38.9885057 0"></polygon>-->
                    <path d="M3.56413793,21.1126437 L3.56413793,20.1618391 L2.14068966,20.6381609 L3.56413793,21.1126437 Z M21.5172414,0 L6.43678161,23.6377011 L6.43678161,0 L0,0 L0,32 L34.2068966,32 L34.2068966,0 L21.5172414,0 Z M1.18436782,1.78390805 L1.82068966,1.78390805 L1.82068966,3.5383908 L2.72183908,3.5383908 L2.72183908,2.03954023 L3.33425287,2.03954023 L3.33425287,3.5383908 L4.34758621,3.5383908 L4.34758621,1.77287356 L4.9783908,1.77287356 L4.9783908,4.32367816 L1.18436782,4.32367816 L1.18436782,1.78390805 Z M1.18436782,8.16367816 L2.72183908,8.16367816 L2.72183908,6.63724138 L1.18436782,6.63724138 L1.18436782,5.8537931 L4.9783908,5.8537931 L4.9783908,6.63724138 L3.3508046,6.63724138 L3.3508046,8.16367816 L4.9783908,8.16367816 L4.9783908,8.94712644 L1.18436782,8.94712644 L1.18436782,8.16367816 Z M1.18436782,10.3337931 L1.63310345,10.3337931 L4.34758621,12.2004598 L4.34758621,10.2988506 L4.9783908,10.2988506 L4.9783908,13.1770115 L4.51862069,13.1770115 L1.82068966,11.2993103 L1.82068966,13.1770115 L1.18436782,13.1770115 L1.18436782,10.3337931 Z M1.18436782,16.8717241 L3.68735632,15.3471264 L1.18436782,15.3471264 L1.18436782,14.5673563 L4.9783908,14.5673563 L4.9783908,15.3471264 L2.48091954,16.8717241 L4.9783908,16.8717241 L4.9783908,17.6551724 L1.18436782,17.6551724 L1.18436782,16.8717241 Z M1.18436782,20.2795402 L4.9783908,18.8616092 L4.9783908,19.6928736 L4.19862069,19.954023 L4.19862069,21.3333333 L4.9783908,21.5944828 L4.9783908,22.422069 L1.18436782,21.0004598 L1.18436782,20.2795402 Z M4.9783908,29.3903448 L3.60091954,29.3903448 L1.18436782,30.6372414 L1.18436782,29.7783908 L2.89287356,28.9949425 L1.18436782,28.205977 L1.18436782,27.3508046 L3.60091954,28.5995402 L4.9783908,28.5995402 L4.9783908,29.3903448 Z M3.69103448,26.4349425 L1.18436782,26.4349425 L1.18436782,25.6514943 L3.68735632,25.6514943 C4.18758621,25.6514943 4.40091954,25.3995402 4.40091954,24.9783908 C4.40091954,24.5572414 4.17287356,24.3218391 3.71862069,24.3126437 L1.18436782,24.3126437 L1.18436782,23.5273563 L3.68735632,23.5273563 C4.56643678,23.5273563 5.03172414,24.1416092 5.03172414,24.9783908 C5.03172414,25.8151724 4.56643678,26.4349425 3.68735632,26.4349425 L3.69103448,26.4349425 Z M22.0689655,27.6009195 C26.5416092,27.7977011 27.6211494,23.1724138 27.6211494,23.1724138 L32.1783908,23.1724138 C32.1783908,23.1724138 30.6924138,31.4721839 21.9475862,31.4721839 C14.1572414,31.4721839 13.3627586,24.8717241 13.5871264,21.0777011 C13.5632184,18.3724138 15.4298851,8.87356322 25.0317241,8.87356322 C33.2873563,8.87356322 33.2873563,16.0128736 33.2873563,16.0128736 L29.0574713,16.1967816 C29.0574713,16.1967816 28.3751724,12.616092 25.0409195,12.7025287 C19.5236782,13.0832184 18.3411494,18.7714943 18.0910345,20.6363218 C17.6551724,23.771954 18.7843678,27.4611494 22.0689655,27.6009195 Z M9.95862069,0 L9.95862069,9.3462069 L15.5144828,0 L9.95862069,0 Z" id="å½¢çŠ¶"></path>
                </g>
<!--                <g filter="url(#filter-1)" id="LOGO">-->
<!--                    <g transform="translate(60.000000, 4.000000)">-->
<!--                        <path d="M14.6318919,21.5497297 C11.6675676,21.5497297 9.50432432,21.3454054 7.87621622,20.3286486 C7.37675676,20.0351351 6.98108108,19.7610811 6.63243243,19.5178378 C6.37783784,19.3410811 6.1572973,19.1935135 5.94810811,19.0637838 L5.94810811,11.0821622 C5.94721542,9.94933939 5.02957847,9.03097703 3.89675676,9.02918919 L0.06,9.02918919 L0.06,11.4535135 L3.39243243,11.4535135 L3.39243243,19.1724324 L0,21.3567568 L0,24 L0.131351351,23.9059459 C1.49837838,22.932973 4.25027027,21.0859459 4.89405405,21.0859459 C5.25405405,21.0859459 5.77297297,21.4572973 6.37459459,21.8854054 C6.6827027,22.1059459 7.00216216,22.3345946 7.34756757,22.5454054 C9.30486486,23.6918919 11.5475676,23.9221622 14.5297297,23.9221622 C17.3075676,23.9221622 23.4859459,23.772973 23.5491892,23.7713514 L23.6302703,23.7713514 L23.6302703,21.432973 L23.5443243,21.432973 C23.4810811,21.4362162 17.4340541,21.5497297 14.6318919,21.5497297 Z" id="è·¯å¾„" fill="#F55A00" fill-rule="nonzero"></path>-->
<!--                        <path d="M7.12054054,9.39243243 L11.2621622,9.39243243 C11.1,12.4621622 10.6832432,14.5410811 9.05351351,16.0508108 C8.42594595,16.632973 7.2,16.7659459 7.18702703,16.7675676 L7.11243243,16.7675676 L7.11243243,19.2113514 L7.20324324,19.2113514 C8.86216216,19.0637838 10.0491892,18.6454054 10.8308108,17.9351351 C12.4216216,16.4854054 13.5437838,14.4762162 13.8437838,9.39405405 L16.307027,9.39405405 L16.307027,16.1886486 C16.307027,18.5335135 16.9021622,19.2113514 18.9632432,19.2113514 L21.5481081,19.2113514 C22.8989189,19.2113514 23.627027,18.192973 23.627027,17.2345946 L23.627027,14.1081081 L21.4135135,14.1081081 L21.4135135,14.1891892 C21.3989189,14.6562162 21.3908108,15.0454054 21.3859459,15.3681081 C21.3551351,16.8843243 21.3551351,16.8843243 20.9594595,16.8843243 L19.3378378,16.8843243 C18.8513514,16.8843243 18.7654054,16.8324324 18.7654054,16.1805405 L18.7654054,9.39243243 L23.6481081,9.39243243 L23.6481081,7.04756757 L7.12054054,7.04756757 L7.12054054,9.39243243 Z" id="è·¯å¾„" fill="#F55A00" fill-rule="nonzero"></path>-->
<!--                        <rect id="çŸ©å½¢" fill="#F55A00" fill-rule="nonzero" x="8.85243243" y="1.79189189" width="13.212973" height="2.31891892"></rect>-->
<!--                        <path d="M29.2443243,7.56 C28.7010811,7.66702703 28.1886486,7.76918919 27.5545946,7.83405405 L27.48,7.83405405 L27.48,10.0654054 L31.2194595,9.49783784 L31.2194595,12.0259459 C31.2194595,12.2562162 31.1643243,12.3372973 30.8481081,12.3372973 C30.2830481,12.382081 29.7153303,12.382081 29.1502703,12.3372973 L29.0627027,12.3372973 L29.0627027,14.4454054 L29.1454054,14.4454054 C30.8448649,14.4454054 31.9021622,14.3854054 32.6659459,14.0724324 C33.4297297,13.7594595 33.7167568,13.2502703 33.7167568,12.0518919 L33.7167568,9.13297297 L36.6243243,8.66594595 L36.6243243,6.44108108 L36.5302703,6.45405405 C35.9108108,6.53351351 35.4843243,6.61621622 35.0708108,6.69243243 C34.6832432,6.76702703 34.2810811,6.84324324 33.7167568,6.91783784 L33.7167568,4.73351351 L36.6356757,4.73351351 L36.6356757,2.46324324 L33.7167568,2.46324324 L33.7167568,0.0259459459 L31.2194595,0.0259459459 L31.2194595,2.46810811 L27.4475676,2.46810811 L27.4475676,4.73837838 L31.2194595,4.73837838 L31.2194595,7.22756757 C30.3924324,7.33297297 29.7827027,7.45945946 29.2443243,7.56 Z" id="è·¯å¾„" fill="#F55A00" fill-rule="nonzero"></path>-->
<!--                        <path d="M44.4762162,15.4345843 L28.8616216,15.4345843 L28.8616216,23.9254054 L46.5372973,23.9254054 L46.5372973,17.4859459 C46.536439,16.9404701 46.3187033,16.4177245 45.9320817,16.032928 C45.5454601,15.6481315 45.02169,15.4328718 44.4762162,15.4345843 L44.4762162,15.4345843 Z M43.8681081,17.7275676 L43.8681081,21.6291892 L31.4156757,21.6291892 L31.4156757,17.7275676 L43.8681081,17.7275676 Z" id="å½¢çŠ¶" fill="#F55A00" fill-rule="nonzero"></path>-->
<!--                        <path d="M40.8097297,5.93189189 L40.7983784,3.56756757 C41.4908108,3.47189189 42.2075676,3.38594595 42.9064865,3.30162162 C44.7016216,3.08108108 46.5502703,2.86378378 48.107027,2.44540541 L48.1686486,2.42918919 L48.1686486,0 L48.0583784,0.0405405405 C46.4659459,0.611351351 43.2794595,1.20162162 38.5881081,1.79189189 L38.5151351,1.80162162 L38.5151351,6.06810811 C38.5151351,8.14864865 38.5151351,12.0194595 36.2091892,12.3389189 L36.1378378,12.3486486 L36.1378378,14.4454054 L36.2205405,14.4454054 C36.2643243,14.4454054 40.5664865,14.3724324 40.727027,8.12108108 L43.3589189,8.12108108 L43.3589189,14.4454054 L45.8886486,14.4454054 L45.8886486,8.12108108 L48.2383784,8.12108108 L48.2383784,5.93189189 L40.8097297,5.93189189 Z" id="è·¯å¾„" fill="#F55A00" fill-rule="nonzero"></path>-->
<!--                        <path d="M3.00810811,6.35837896 C3.93174108,6.35903437 4.76479198,5.80315611 5.11870565,4.95001872 C5.47261932,4.09688132 5.2776752,3.11455184 4.62479994,2.46121257 C3.97192469,1.80787329 2.98973396,1.61223129 2.13634533,1.96553874 C1.2829567,2.31884618 0.726486486,3.15150193 0.726486486,4.07513514 C0.727379467,5.33513253 1.74811166,6.3565902 3.00810811,6.35837896 Z" id="è·¯å¾„" fill="#F55A00" fill-rule="nonzero"></path>-->
<!--                    </g>-->
<!--                </g>-->
            </g>
        </g>
    </g>
</svg>
